{
    "asset" : {
        "generator" : "Khronos glTF Blender I/O v1.0.5",
        "version" : "2.0"
    },
    "scene" : 0,
    "scenes" : [
        {
            "name" : "Scene",
            "nodes" : [
                0
            ]
        }
    ],
    "nodes" : [
        {
            "mesh" : 0,
            "name" : "rock01"
        }
    ],
    "materials" : [
        {
            "doubleSided" : true,
            "name" : "Material",
            "normalTexture" : {
                "index" : 0,
                "texCoord" : 0
            },
            "pbrMetallicRoughness" : {
                "baseColorTexture" : {
                    "index" : 1,
                    "texCoord" : 0
                },
                "metallicFactor" : 0,
                "metallicRoughnessTexture" : {
                    "index" : 2,
                    "texCoord" : 0
                }
            }
        }
    ],
    "meshes" : [
        {
            "name" : "Cube.001",
            "primitives" : [
                {
                    "attributes" : {
                        "POSITION" : 0,
                        "NORMAL" : 1,
                        "TEXCOORD_0" : 2
                    },
                    "indices" : 3,
                    "material" : 0
                }
            ]
        }
    ],
    "textures" : [
        {
            "source" : 0
        },
        {
            "source" : 1
        },
        {
            "source" : 2
        }
    ],
    "images" : [
        {
            "mimeType" : "image/png",
            "name" : "TexturesCom_RockBase5_2x2_1K_normal",
            "uri" : "TexturesCom_RockBase5_2x2_1K_normal.png"
        },
        {
            "mimeType" : "image/png",
            "name" : "TexturesCom_RockBase5_2x2_1K_albedo",
            "uri" : "TexturesCom_RockBase5_2x2_1K_albedo.png"
        },
        {
            "mimeType" : "image/png",
            "name" : "TexturesCom_RockBase5_2x2_1K_roughness",
            "uri" : "TexturesCom_RockBase5_2x2_1K_roughness.png"
        }
    ],
    "accessors" : [
        {
            "bufferView" : 0,
            "componentType" : 5126,
            "count" : 594,
            "max" : [
                17.597736358642578,
                6.0525712966918945,
                8.968210220336914
            ],
            "min" : [
                3.4474449157714844,
                -4.397446632385254,
                -2.893794298171997
            ],
            "type" : "VEC3"
        },
        {
            "bufferView" : 1,
            "componentType" : 5126,
            "count" : 594,
            "type" : "VEC3"
        },
        {
            "bufferView" : 2,
            "componentType" : 5126,
            "count" : 594,
            "type" : "VEC2"
        },
        {
            "bufferView" : 3,
            "componentType" : 5123,
            "count" : 792,
            "type" : "SCALAR"
        }
    ],
    "bufferViews" : [
        {
            "buffer" : 0,
            "byteLength" : 7128,
            "byteOffset" : 0
        },
        {
            "buffer" : 0,
            "byteLength" : 7128,
            "byteOffset" : 7128
        },
        {
            "buffer" : 0,
            "byteLength" : 4752,
            "byteOffset" : 14256
        },
        {
            "buffer" : 0,
            "byteLength" : 1584,
            "byteOffset" : 19008
        }
    ],
    "buffers" : [
        {
            "byteLength" : 20592,
            "uri" : "rocher02.bin"
        }
    ]
}
