{
    "asset" : {
        "generator" : "Khronos glTF Blender I/O v1.0.5",
        "version" : "2.0"
    },
    "scene" : 0,
    "scenes" : [
        {
            "extras" : {
                "glTF2ExportSettings" : {
                    "export_extras" : 1,
                    "export_format" : "GLTF_SEPARATE",
                    "export_selected" : 1
                }
            },
            "name" : "Scene",
            "nodes" : [
                0
            ]
        }
    ],
    "nodes" : [
        {
            "mesh" : 0,
            "name" : "sea",
            "translation" : [
                152.35647583007812,
                -0.4557691812515259,
                332.5344543457031
            ]
        }
    ],
    "materials" : [
        {
            "doubleSided" : true,
            "name" : "Material.001",
            "pbrMetallicRoughness" : {
                "baseColorTexture" : {
                    "index" : 0,
                    "texCoord" : 0
                },
                "metallicFactor" : 0,
                "roughnessFactor" : 0.675000011920929
            }
        }
    ],
    "meshes" : [
        {
            "name" : "Plane.003",
            "primitives" : [
                {
                    "attributes" : {
                        "POSITION" : 0,
                        "NORMAL" : 1,
                        "TEXCOORD_0" : 2,
                        "COLOR_0" : 3
                    },
                    "indices" : 4,
                    "material" : 0
                },
                {
                    "attributes" : {
                        "POSITION" : 5,
                        "NORMAL" : 6,
                        "TEXCOORD_0" : 7,
                        "COLOR_0" : 8
                    },
                    "indices" : 9,
                    "material" : 0
                },
                {
                    "attributes" : {
                        "POSITION" : 10,
                        "NORMAL" : 11,
                        "TEXCOORD_0" : 12,
                        "COLOR_0" : 13
                    },
                    "indices" : 14,
                    "material" : 0
                }
            ]
        }
    ],
    "textures" : [
        {
            "source" : 0
        }
    ],
    "images" : [
        {
            "mimeType" : "image/png",
            "name" : "sea",
            "uri" : "sea.png"
        }
    ],
    "accessors" : [
        {
            "bufferView" : 0,
            "componentType" : 5126,
            "count" : 65535,
            "max" : [
                276.53240966796875,
                7.75456428527832e-05,
                250
            ],
            "min" : [
                -223.4675750732422,
                7.75456428527832e-05,
                -250
            ],
            "type" : "VEC3"
        },
        {
            "bufferView" : 1,
            "componentType" : 5126,
            "count" : 65535,
            "type" : "VEC3"
        },
        {
            "bufferView" : 2,
            "componentType" : 5126,
            "count" : 65535,
            "type" : "VEC2"
        },
        {
            "bufferView" : 3,
            "componentType" : 5126,
            "count" : 65535,
            "type" : "VEC4"
        },
        {
            "bufferView" : 4,
            "componentType" : 5123,
            "count" : 65541,
            "type" : "SCALAR"
        },
        {
            "bufferView" : 5,
            "componentType" : 5126,
            "count" : 32759,
            "max" : [
                276.53240966796875,
                7.75456428527832e-05,
                242.1875
            ],
            "min" : [
                -215.6550750732422,
                7.75456428527832e-05,
                -250
            ],
            "type" : "VEC3"
        },
        {
            "bufferView" : 6,
            "componentType" : 5126,
            "count" : 32759,
            "type" : "VEC3"
        },
        {
            "bufferView" : 7,
            "componentType" : 5126,
            "count" : 32759,
            "type" : "VEC2"
        },
        {
            "bufferView" : 8,
            "componentType" : 5126,
            "count" : 32759,
            "type" : "VEC4"
        },
        {
            "bufferView" : 9,
            "componentType" : 5123,
            "count" : 32754,
            "type" : "SCALAR"
        },
        {
            "bufferView" : 10,
            "componentType" : 5126,
            "count" : 7,
            "max" : [
                260.90740966796875,
                7.75456428527832e-05,
                -85.9375
            ],
            "min" : [
                253.09490966796875,
                7.75456428527832e-05,
                -89.84375
            ],
            "type" : "VEC3"
        },
        {
            "bufferView" : 11,
            "componentType" : 5126,
            "count" : 7,
            "type" : "VEC3"
        },
        {
            "bufferView" : 12,
            "componentType" : 5126,
            "count" : 7,
            "type" : "VEC2"
        },
        {
            "bufferView" : 13,
            "componentType" : 5126,
            "count" : 7,
            "type" : "VEC4"
        },
        {
            "bufferView" : 14,
            "componentType" : 5123,
            "count" : 9,
            "type" : "SCALAR"
        }
    ],
    "bufferViews" : [
        {
            "buffer" : 0,
            "byteLength" : 786420,
            "byteOffset" : 0
        },
        {
            "buffer" : 0,
            "byteLength" : 786420,
            "byteOffset" : 786420
        },
        {
            "buffer" : 0,
            "byteLength" : 524280,
            "byteOffset" : 1572840
        },
        {
            "buffer" : 0,
            "byteLength" : 1048560,
            "byteOffset" : 2097120
        },
        {
            "buffer" : 0,
            "byteLength" : 131082,
            "byteOffset" : 3145680
        },
        {
            "buffer" : 0,
            "byteLength" : 393108,
            "byteOffset" : 3276764
        },
        {
            "buffer" : 0,
            "byteLength" : 393108,
            "byteOffset" : 3669872
        },
        {
            "buffer" : 0,
            "byteLength" : 262072,
            "byteOffset" : 4062980
        },
        {
            "buffer" : 0,
            "byteLength" : 524144,
            "byteOffset" : 4325052
        },
        {
            "buffer" : 0,
            "byteLength" : 65508,
            "byteOffset" : 4849196
        },
        {
            "buffer" : 0,
            "byteLength" : 84,
            "byteOffset" : 4914704
        },
        {
            "buffer" : 0,
            "byteLength" : 84,
            "byteOffset" : 4914788
        },
        {
            "buffer" : 0,
            "byteLength" : 56,
            "byteOffset" : 4914872
        },
        {
            "buffer" : 0,
            "byteLength" : 112,
            "byteOffset" : 4914928
        },
        {
            "buffer" : 0,
            "byteLength" : 18,
            "byteOffset" : 4915040
        }
    ],
    "buffers" : [
        {
            "byteLength" : 4915060,
            "uri" : "sea.bin"
        }
    ]
}
