{
    "asset" : {
        "generator" : "Khronos glTF Blender I/O v1.0.5",
        "version" : "2.0"
    },
    "scene" : 0,
    "scenes" : [
        {
            "extras" : {
                "glTF2ExportSettings" : {
                    "export_extras" : 1,
                    "export_format" : "GLTF_SEPARATE",
                    "export_selected" : 1
                }
            },
            "name" : "Scene",
            "nodes" : [
                0
            ]
        }
    ],
    "nodes" : [
        {
            "mesh" : 0,
            "name" : "Plane",
            "translation" : [
                -1.9210889339447021,
                -2.30711030960083,
                6.816098213195801
            ]
        }
    ],
    "materials" : [
        {
            "doubleSided" : true,
            "name" : "Material",
            "pbrMetallicRoughness" : {
                "baseColorFactor" : [
                    0.052218250930309296,
                    0.014688793569803238,
                    0.00727951992303133,
                    1
                ],
                "metallicFactor" : 0,
                "roughnessFactor" : 0.8583333492279053
            }
        }
    ],
    "meshes" : [
        {
            "name" : "Plane",
            "primitives" : [
                {
                    "attributes" : {
                        "POSITION" : 0,
                        "NORMAL" : 1,
                        "TEXCOORD_0" : 2
                    },
                    "indices" : 3,
                    "material" : 0
                }
            ]
        }
    ],
    "accessors" : [
        {
            "bufferView" : 0,
            "componentType" : 5126,
            "count" : 29728,
            "max" : [
                50.001007080078125,
                29.449907302856445,
                50
            ],
            "min" : [
                -50.07672882080078,
                -8.580603753216565e-05,
                -60.3597412109375
            ],
            "type" : "VEC3"
        },
        {
            "bufferView" : 1,
            "componentType" : 5126,
            "count" : 29728,
            "type" : "VEC3"
        },
        {
            "bufferView" : 2,
            "componentType" : 5126,
            "count" : 29728,
            "type" : "VEC2"
        },
        {
            "bufferView" : 3,
            "componentType" : 5123,
            "count" : 43920,
            "type" : "SCALAR"
        }
    ],
    "bufferViews" : [
        {
            "buffer" : 0,
            "byteLength" : 356736,
            "byteOffset" : 0
        },
        {
            "buffer" : 0,
            "byteLength" : 356736,
            "byteOffset" : 356736
        },
        {
            "buffer" : 0,
            "byteLength" : 237824,
            "byteOffset" : 713472
        },
        {
            "buffer" : 0,
            "byteLength" : 87840,
            "byteOffset" : 951296
        }
    ],
    "buffers" : [
        {
            "byteLength" : 1039136,
            "uri" : "terrainLowPoly.bin"
        }
    ]
}
