{
    "asset" : {
        "generator" : "Khronos glTF Blender I/O v1.0.5",
        "version" : "2.0"
    },
    "scene" : 0,
    "scenes" : [
        {
            "extras" : {
                "glTF2ExportSettings" : {
                    "export_extras" : 1,
                    "export_format" : "GLTF_SEPARATE",
                    "export_selected" : 1
                }
            },
            "name" : "Scene",
            "nodes" : [
                0
            ]
        }
    ],
    "nodes" : [
        {
            "mesh" : 0,
            "name" : "Plane.001"
        }
    ],
    "materials" : [
        {
            "doubleSided" : true,
            "name" : "Material",
            "pbrMetallicRoughness" : {
                "baseColorFactor" : [
                    0.052218250930309296,
                    0.014688793569803238,
                    0.00727951992303133,
                    1
                ],
                "metallicFactor" : 0,
                "roughnessFactor" : 0.8583333492279053
            }
        }
    ],
    "meshes" : [
        {
            "name" : "Plane.002",
            "primitives" : [
                {
                    "attributes" : {
                        "POSITION" : 0,
                        "NORMAL" : 1,
                        "TEXCOORD_0" : 2
                    },
                    "indices" : 3,
                    "material" : 0
                }
            ]
        }
    ],
    "accessors" : [
        {
            "bufferView" : 0,
            "componentType" : 5126,
            "count" : 58128,
            "max" : [
                276.2816467285156,
                62.57196807861328,
                112.60240173339844
            ],
            "min" : [
                50.837093353271484,
                -18.38216781616211,
                -117.01962280273438
            ],
            "type" : "VEC3"
        },
        {
            "bufferView" : 1,
            "componentType" : 5126,
            "count" : 58128,
            "type" : "VEC3"
        },
        {
            "bufferView" : 2,
            "componentType" : 5126,
            "count" : 58128,
            "type" : "VEC2"
        },
        {
            "bufferView" : 3,
            "componentType" : 5123,
            "count" : 87846,
            "type" : "SCALAR"
        }
    ],
    "bufferViews" : [
        {
            "buffer" : 0,
            "byteLength" : 697536,
            "byteOffset" : 0
        },
        {
            "buffer" : 0,
            "byteLength" : 697536,
            "byteOffset" : 697536
        },
        {
            "buffer" : 0,
            "byteLength" : 465024,
            "byteOffset" : 1395072
        },
        {
            "buffer" : 0,
            "byteLength" : 175692,
            "byteOffset" : 1860096
        }
    ],
    "buffers" : [
        {
            "byteLength" : 2035788,
            "uri" : "terrainLowPoly.bin"
        }
    ]
}
