{
    "asset" : {
        "generator" : "Khronos glTF Blender I/O v1.0.5",
        "version" : "2.0"
    },
    "scene" : 0,
    "scenes" : [
        {
            "extras" : {
                "glTF2ExportSettings" : {
                    "export_extras" : 1,
                    "export_format" : "GLTF_SEPARATE",
                    "export_selected" : 1
                }
            },
            "name" : "Scene",
            "nodes" : [
                0
            ]
        }
    ],
    "nodes" : [
        {
            "mesh" : 0,
            "name" : "Plane.001"
        }
    ],
    "materials" : [
        {
            "doubleSided" : true,
            "name" : "Material",
            "pbrMetallicRoughness" : {
                "baseColorFactor" : [
                    0.052218250930309296,
                    0.014688793569803238,
                    0.00727951992303133,
                    1
                ],
                "metallicFactor" : 0,
                "roughnessFactor" : 0.8583333492279053
            }
        }
    ],
    "meshes" : [
        {
            "name" : "Plane.002",
            "primitives" : [
                {
                    "attributes" : {
                        "POSITION" : 0,
                        "NORMAL" : 1,
                        "TEXCOORD_0" : 2
                    },
                    "indices" : 3,
                    "material" : 0
                }
            ]
        }
    ],
    "accessors" : [
        {
            "bufferView" : 0,
            "componentType" : 5126,
            "count" : 58675,
            "max" : [
                202.31570434570312,
                54.82638931274414,
                73.6689224243164
            ],
            "min" : [
                50.84524917602539,
                -21.43201446533203,
                -76.44276428222656
            ],
            "type" : "VEC3"
        },
        {
            "bufferView" : 1,
            "componentType" : 5126,
            "count" : 58675,
            "type" : "VEC3"
        },
        {
            "bufferView" : 2,
            "componentType" : 5126,
            "count" : 58675,
            "type" : "VEC2"
        },
        {
            "bufferView" : 3,
            "componentType" : 5123,
            "count" : 88572,
            "type" : "SCALAR"
        }
    ],
    "bufferViews" : [
        {
            "buffer" : 0,
            "byteLength" : 704100,
            "byteOffset" : 0
        },
        {
            "buffer" : 0,
            "byteLength" : 704100,
            "byteOffset" : 704100
        },
        {
            "buffer" : 0,
            "byteLength" : 469400,
            "byteOffset" : 1408200
        },
        {
            "buffer" : 0,
            "byteLength" : 177144,
            "byteOffset" : 1877600
        }
    ],
    "buffers" : [
        {
            "byteLength" : 2054744,
            "uri" : "terrainLowPoly.bin"
        }
    ]
}
