{
    "asset" : {
        "generator" : "Khronos glTF Blender I/O v1.0.5",
        "version" : "2.0"
    },
    "scene" : 0,
    "scenes" : [
        {
            "extras" : {
                "glTF2ExportSettings" : {
                    "export_extras" : 1,
                    "export_format" : "GLTF_SEPARATE",
                    "export_selected" : 1
                }
            },
            "name" : "Scene",
            "nodes" : [
                0
            ]
        }
    ],
    "nodes" : [
        {
            "mesh" : 0,
            "name" : "Plane.001"
        }
    ],
    "materials" : [
        {
            "doubleSided" : true,
            "name" : "Material",
            "pbrMetallicRoughness" : {
                "baseColorFactor" : [
                    0.052218250930309296,
                    0.014688793569803238,
                    0.00727951992303133,
                    1
                ],
                "metallicFactor" : 0,
                "roughnessFactor" : 0.8583333492279053
            }
        }
    ],
    "meshes" : [
        {
            "name" : "Plane.002",
            "primitives" : [
                {
                    "attributes" : {
                        "POSITION" : 0,
                        "NORMAL" : 1,
                        "TEXCOORD_0" : 2
                    },
                    "indices" : 3,
                    "material" : 0
                }
            ]
        }
    ],
    "accessors" : [
        {
            "bufferView" : 0,
            "componentType" : 5126,
            "count" : 61421,
            "max" : [
                195.32931518554688,
                49.77100372314453,
                78.71772766113281
            ],
            "min" : [
                -8.530407905578613,
                -26.48740005493164,
                -73.41828155517578
            ],
            "type" : "VEC3"
        },
        {
            "bufferView" : 1,
            "componentType" : 5126,
            "count" : 61421,
            "type" : "VEC3"
        },
        {
            "bufferView" : 2,
            "componentType" : 5126,
            "count" : 61421,
            "type" : "VEC2"
        },
        {
            "bufferView" : 3,
            "componentType" : 5123,
            "count" : 100560,
            "type" : "SCALAR"
        }
    ],
    "bufferViews" : [
        {
            "buffer" : 0,
            "byteLength" : 737052,
            "byteOffset" : 0
        },
        {
            "buffer" : 0,
            "byteLength" : 737052,
            "byteOffset" : 737052
        },
        {
            "buffer" : 0,
            "byteLength" : 491368,
            "byteOffset" : 1474104
        },
        {
            "buffer" : 0,
            "byteLength" : 201120,
            "byteOffset" : 1965472
        }
    ],
    "buffers" : [
        {
            "byteLength" : 2166592,
            "uri" : "terrainLowPoly.bin"
        }
    ]
}
