{
    "asset" : {
        "generator" : "Khronos glTF Blender I/O v1.0.5",
        "version" : "2.0"
    },
    "scene" : 0,
    "scenes" : [
        {
            "extras" : {
                "glTF2ExportSettings" : {
                    "export_extras" : 1,
                    "export_format" : "GLTF_SEPARATE",
                    "export_selected" : 1
                }
            },
            "name" : "Scene",
            "nodes" : [
                0
            ]
        }
    ],
    "nodes" : [
        {
            "mesh" : 0,
            "name" : "Plane.001"
        }
    ],
    "materials" : [
        {
            "doubleSided" : true,
            "name" : "Material",
            "pbrMetallicRoughness" : {
                "baseColorFactor" : [
                    0.052218250930309296,
                    0.014688793569803238,
                    0.00727951992303133,
                    1
                ],
                "metallicFactor" : 0,
                "roughnessFactor" : 0.8583333492279053
            }
        }
    ],
    "meshes" : [
        {
            "name" : "Plane.002",
            "primitives" : [
                {
                    "attributes" : {
                        "POSITION" : 0,
                        "NORMAL" : 1,
                        "TEXCOORD_0" : 2
                    },
                    "indices" : 3,
                    "material" : 0
                }
            ]
        }
    ],
    "accessors" : [
        {
            "bufferView" : 0,
            "componentType" : 5126,
            "count" : 58130,
            "max" : [
                245.09942626953125,
                46.37586975097656,
                98.07630920410156
            ],
            "min" : [
                45.099422454833984,
                -13.624135971069336,
                -101.92369079589844
            ],
            "type" : "VEC3"
        },
        {
            "bufferView" : 1,
            "componentType" : 5126,
            "count" : 58130,
            "type" : "VEC3"
        },
        {
            "bufferView" : 2,
            "componentType" : 5126,
            "count" : 58130,
            "type" : "VEC2"
        },
        {
            "bufferView" : 3,
            "componentType" : 5123,
            "count" : 87846,
            "type" : "SCALAR"
        }
    ],
    "bufferViews" : [
        {
            "buffer" : 0,
            "byteLength" : 697560,
            "byteOffset" : 0
        },
        {
            "buffer" : 0,
            "byteLength" : 697560,
            "byteOffset" : 697560
        },
        {
            "buffer" : 0,
            "byteLength" : 465040,
            "byteOffset" : 1395120
        },
        {
            "buffer" : 0,
            "byteLength" : 175692,
            "byteOffset" : 1860160
        }
    ],
    "buffers" : [
        {
            "byteLength" : 2035852,
            "uri" : "terrainLowPoly.bin"
        }
    ]
}
