{
    "asset" : {
        "generator" : "Khronos glTF Blender I/O v1.0.5",
        "version" : "2.0"
    },
    "scene" : 0,
    "scenes" : [
        {
            "extras" : {
                "glTF2ExportSettings" : {
                    "export_extras" : 1,
                    "export_format" : "GLTF_SEPARATE",
                    "export_selected" : 1
                }
            },
            "name" : "Scene",
            "nodes" : [
                0,
                1,
                2,
                3,
                4,
                5,
                6,
                7,
                8,
                9,
                10,
                11,
                12
            ]
        }
    ],
    "nodes" : [
        {
            "name" : "Light",
            "rotation" : [
                0.16907575726509094,
                0.7558803558349609,
                -0.27217137813568115,
                0.570947527885437
            ],
            "translation" : [
                4.076245307922363,
                5.903861999511719,
                -1.0054539442062378
            ]
        },
        {
            "name" : "Camera",
            "rotation" : [
                0.483536034822464,
                0.33687159419059753,
                -0.20870360732078552,
                0.7804827094078064
            ],
            "translation" : [
                7.358891487121582,
                4.958309173583984,
                6.925790786743164
            ]
        },
        {
            "mesh" : 0,
            "name" : "Plane"
        },
        {
            "mesh" : 1,
            "name" : "maison02"
        },
        {
            "mesh" : 2,
            "name" : "etage"
        },
        {
            "mesh" : 3,
            "name" : "escalier"
        },
        {
            "mesh" : 4,
            "name" : "Cube"
        },
        {
            "mesh" : 5,
            "name" : "Cube.001"
        },
        {
            "mesh" : 6,
            "name" : "Cube.002"
        },
        {
            "mesh" : 7,
            "name" : "Cube.003",
            "rotation" : [
                0,
                -0.25693729519844055,
                0,
                0.9664281010627747
            ]
        },
        {
            "mesh" : 8,
            "name" : "Cube.004",
            "rotation" : [
                0,
                -0.8028874397277832,
                0,
                0.5961306691169739
            ]
        },
        {
            "mesh" : 9,
            "name" : "Cube.006",
            "translation" : [
                -19.006675720214844,
                3.0517578125e-05,
                -4.185593128204346
            ]
        },
        {
            "mesh" : 10,
            "name" : "Cube.005",
            "scale" : [
                0.5,
                0.5,
                0.5
            ],
            "translation" : [
                -29.899044036865234,
                0.5,
                -6.239809989929199
            ]
        }
    ],
    "materials" : [
        {
            "doubleSided" : true,
            "name" : "street",
            "pbrMetallicRoughness" : {
                "baseColorFactor" : [
                    0.1424006223678589,
                    0.1424006223678589,
                    0.1424006223678589,
                    1
                ],
                "metallicFactor" : 0,
                "roughnessFactor" : 0.4000000059604645
            }
        },
        {
            "doubleSided" : true,
            "name" : "trottoire",
            "pbrMetallicRoughness" : {
                "baseColorFactor" : [
                    0.3873926103115082,
                    0.42002493143081665,
                    0.3142780065536499,
                    1
                ],
                "metallicFactor" : 0,
                "roughnessFactor" : 0.5
            }
        },
        {
            "doubleSided" : true,
            "name" : "terrain",
            "pbrMetallicRoughness" : {
                "baseColorFactor" : [
                    0.006154797505587339,
                    0.03741001337766647,
                    0.005469945725053549,
                    1
                ],
                "metallicFactor" : 0,
                "roughnessFactor" : 0.9333333373069763
            }
        }
    ],
    "meshes" : [
        {
            "name" : "Plane",
            "primitives" : [
                {
                    "attributes" : {
                        "POSITION" : 0,
                        "NORMAL" : 1,
                        "TEXCOORD_0" : 2
                    },
                    "indices" : 3,
                    "material" : 0
                },
                {
                    "attributes" : {
                        "POSITION" : 4,
                        "NORMAL" : 5,
                        "TEXCOORD_0" : 6
                    },
                    "indices" : 7,
                    "material" : 1
                },
                {
                    "attributes" : {
                        "POSITION" : 8,
                        "NORMAL" : 9,
                        "TEXCOORD_0" : 10
                    },
                    "indices" : 11,
                    "material" : 2
                }
            ]
        },
        {
            "name" : "Plane.002",
            "primitives" : [
                {
                    "attributes" : {
                        "POSITION" : 12,
                        "NORMAL" : 13,
                        "TEXCOORD_0" : 14
                    },
                    "indices" : 15,
                    "material" : 0
                }
            ]
        },
        {
            "name" : "Plane.003",
            "primitives" : [
                {
                    "attributes" : {
                        "POSITION" : 16,
                        "NORMAL" : 17,
                        "TEXCOORD_0" : 18
                    },
                    "indices" : 19,
                    "material" : 0
                }
            ]
        },
        {
            "name" : "Cube.001",
            "primitives" : [
                {
                    "attributes" : {
                        "POSITION" : 20,
                        "NORMAL" : 21,
                        "TEXCOORD_0" : 22
                    },
                    "indices" : 23,
                    "material" : 1
                }
            ]
        },
        {
            "name" : "Cube",
            "primitives" : [
                {
                    "attributes" : {
                        "POSITION" : 24,
                        "NORMAL" : 25,
                        "TEXCOORD_0" : 26
                    },
                    "indices" : 27
                }
            ]
        },
        {
            "name" : "Cube.003",
            "primitives" : [
                {
                    "attributes" : {
                        "POSITION" : 28,
                        "NORMAL" : 29,
                        "TEXCOORD_0" : 30
                    },
                    "indices" : 27
                }
            ]
        },
        {
            "name" : "Cube.004",
            "primitives" : [
                {
                    "attributes" : {
                        "POSITION" : 31,
                        "NORMAL" : 32,
                        "TEXCOORD_0" : 33
                    },
                    "indices" : 27
                }
            ]
        },
        {
            "name" : "Cube.005",
            "primitives" : [
                {
                    "attributes" : {
                        "POSITION" : 34,
                        "NORMAL" : 35,
                        "TEXCOORD_0" : 36
                    },
                    "indices" : 27
                }
            ]
        },
        {
            "name" : "Cube.006",
            "primitives" : [
                {
                    "attributes" : {
                        "POSITION" : 37,
                        "NORMAL" : 38,
                        "TEXCOORD_0" : 39
                    },
                    "indices" : 27
                }
            ]
        },
        {
            "name" : "Cube.010",
            "primitives" : [
                {
                    "attributes" : {
                        "POSITION" : 40,
                        "NORMAL" : 41,
                        "TEXCOORD_0" : 42
                    },
                    "indices" : 43,
                    "material" : 0
                }
            ]
        },
        {
            "name" : "Cube.012",
            "primitives" : [
                {
                    "attributes" : {
                        "POSITION" : 44,
                        "NORMAL" : 45,
                        "TEXCOORD_0" : 46
                    },
                    "indices" : 27
                }
            ]
        }
    ],
    "accessors" : [
        {
            "bufferView" : 0,
            "componentType" : 5126,
            "count" : 201,
            "max" : [
                14,
                0.19548025727272034,
                14.5
            ],
            "min" : [
                -14,
                -0.42247435450553894,
                -13.000000953674316
            ],
            "type" : "VEC3"
        },
        {
            "bufferView" : 1,
            "componentType" : 5126,
            "count" : 201,
            "type" : "VEC3"
        },
        {
            "bufferView" : 2,
            "componentType" : 5126,
            "count" : 201,
            "type" : "VEC2"
        },
        {
            "bufferView" : 3,
            "componentType" : 5123,
            "count" : 537,
            "type" : "SCALAR"
        },
        {
            "bufferView" : 4,
            "componentType" : 5126,
            "count" : 1347,
            "max" : [
                15.5,
                0.19548025727272034,
                14.5
            ],
            "min" : [
                -15.500000953674316,
                -0.9145197868347168,
                -14.5
            ],
            "type" : "VEC3"
        },
        {
            "bufferView" : 5,
            "componentType" : 5126,
            "count" : 1347,
            "type" : "VEC3"
        },
        {
            "bufferView" : 6,
            "componentType" : 5126,
            "count" : 1347,
            "type" : "VEC2"
        },
        {
            "bufferView" : 7,
            "componentType" : 5123,
            "count" : 3432,
            "type" : "SCALAR"
        },
        {
            "bufferView" : 8,
            "componentType" : 5126,
            "count" : 28382,
            "max" : [
                59.600955963134766,
                11.811516761779785,
                58.04924011230469
            ],
            "min" : [
                -60.39904022216797,
                -1,
                -62.011905670166016
            ],
            "type" : "VEC3"
        },
        {
            "bufferView" : 9,
            "componentType" : 5126,
            "count" : 28382,
            "type" : "VEC3"
        },
        {
            "bufferView" : 10,
            "componentType" : 5126,
            "count" : 28382,
            "type" : "VEC2"
        },
        {
            "bufferView" : 11,
            "componentType" : 5123,
            "count" : 50688,
            "type" : "SCALAR"
        },
        {
            "bufferView" : 12,
            "componentType" : 5126,
            "count" : 222,
            "max" : [
                5.247539520263672,
                2.595480442047119,
                -14.5
            ],
            "min" : [
                -3.1524600982666016,
                0.19548024237155914,
                -21.700000762939453
            ],
            "type" : "VEC3"
        },
        {
            "bufferView" : 13,
            "componentType" : 5126,
            "count" : 222,
            "type" : "VEC3"
        },
        {
            "bufferView" : 14,
            "componentType" : 5126,
            "count" : 222,
            "type" : "VEC2"
        },
        {
            "bufferView" : 15,
            "componentType" : 5123,
            "count" : 558,
            "type" : "SCALAR"
        },
        {
            "bufferView" : 16,
            "componentType" : 5126,
            "count" : 242,
            "max" : [
                5.247539520263672,
                4.595480442047119,
                -14.5
            ],
            "min" : [
                -3.1524600982666016,
                2.1954803466796875,
                -21.700000762939453
            ],
            "type" : "VEC3"
        },
        {
            "bufferView" : 17,
            "componentType" : 5126,
            "count" : 242,
            "type" : "VEC3"
        },
        {
            "bufferView" : 18,
            "componentType" : 5126,
            "count" : 242,
            "type" : "VEC2"
        },
        {
            "bufferView" : 19,
            "componentType" : 5123,
            "count" : 570,
            "type" : "SCALAR"
        },
        {
            "bufferView" : 20,
            "componentType" : 5126,
            "count" : 168,
            "max" : [
                1.3301072120666504,
                2.4162535667419434,
                -20.033233642578125
            ],
            "min" : [
                -2.4052674770355225,
                0.11000001430511475,
                -21.347286224365234
            ],
            "type" : "VEC3"
        },
        {
            "bufferView" : 21,
            "componentType" : 5126,
            "count" : 168,
            "type" : "VEC3"
        },
        {
            "bufferView" : 22,
            "componentType" : 5126,
            "count" : 168,
            "type" : "VEC2"
        },
        {
            "bufferView" : 23,
            "componentType" : 5123,
            "count" : 252,
            "type" : "SCALAR"
        },
        {
            "bufferView" : 24,
            "componentType" : 5126,
            "count" : 24,
            "max" : [
                20.500001907348633,
                6.195480823516846,
                -6.820319652557373
            ],
            "min" : [
                15.500000953674316,
                0.19548046588897705,
                -12.820320129394531
            ],
            "type" : "VEC3"
        },
        {
            "bufferView" : 25,
            "componentType" : 5126,
            "count" : 24,
            "type" : "VEC3"
        },
        {
            "bufferView" : 26,
            "componentType" : 5126,
            "count" : 24,
            "type" : "VEC2"
        },
        {
            "bufferView" : 27,
            "componentType" : 5123,
            "count" : 36,
            "type" : "SCALAR"
        },
        {
            "bufferView" : 28,
            "componentType" : 5126,
            "count" : 24,
            "max" : [
                20.500001907348633,
                4.1954803466796875,
                1.6228094100952148
            ],
            "min" : [
                15.500001907348633,
                0.1954803466796875,
                -4.377190589904785
            ],
            "type" : "VEC3"
        },
        {
            "bufferView" : 29,
            "componentType" : 5126,
            "count" : 24,
            "type" : "VEC3"
        },
        {
            "bufferView" : 30,
            "componentType" : 5126,
            "count" : 24,
            "type" : "VEC2"
        },
        {
            "bufferView" : 31,
            "componentType" : 5126,
            "count" : 24,
            "max" : [
                20.500001907348633,
                4.1954803466796875,
                10.191998481750488
            ],
            "min" : [
                15.500001907348633,
                0.1954803466796875,
                4.191998481750488
            ],
            "type" : "VEC3"
        },
        {
            "bufferView" : 32,
            "componentType" : 5126,
            "count" : 24,
            "type" : "VEC3"
        },
        {
            "bufferView" : 33,
            "componentType" : 5126,
            "count" : 24,
            "type" : "VEC2"
        },
        {
            "bufferView" : 34,
            "componentType" : 5126,
            "count" : 24,
            "max" : [
                39.09561538696289,
                4,
                0.049286842346191406
            ],
            "min" : [
                34.09561538696289,
                0,
                -5.950713157653809
            ],
            "type" : "VEC3"
        },
        {
            "bufferView" : 35,
            "componentType" : 5126,
            "count" : 24,
            "type" : "VEC3"
        },
        {
            "bufferView" : 36,
            "componentType" : 5126,
            "count" : 24,
            "type" : "VEC2"
        },
        {
            "bufferView" : 37,
            "componentType" : 5126,
            "count" : 24,
            "max" : [
                23.691490173339844,
                4.004167556762695,
                -5.598308086395264
            ],
            "min" : [
                18.691490173339844,
                0.004167795181274414,
                -11.598308563232422
            ],
            "type" : "VEC3"
        },
        {
            "bufferView" : 38,
            "componentType" : 5126,
            "count" : 24,
            "type" : "VEC3"
        },
        {
            "bufferView" : 39,
            "componentType" : 5126,
            "count" : 24,
            "type" : "VEC2"
        },
        {
            "bufferView" : 40,
            "componentType" : 5126,
            "count" : 227,
            "max" : [
                3.5066757202148438,
                3.999969482421875,
                4.048691272735596
            ],
            "min" : [
                -1.4933242797851562,
                -3.0517578125e-05,
                -1.9513087272644043
            ],
            "type" : "VEC3"
        },
        {
            "bufferView" : 41,
            "componentType" : 5126,
            "count" : 227,
            "type" : "VEC3"
        },
        {
            "bufferView" : 42,
            "componentType" : 5126,
            "count" : 227,
            "type" : "VEC2"
        },
        {
            "bufferView" : 43,
            "componentType" : 5123,
            "count" : 438,
            "type" : "SCALAR"
        },
        {
            "bufferView" : 44,
            "componentType" : 5126,
            "count" : 24,
            "max" : [
                1,
                1,
                1
            ],
            "min" : [
                -1,
                -1,
                -1
            ],
            "type" : "VEC3"
        },
        {
            "bufferView" : 45,
            "componentType" : 5126,
            "count" : 24,
            "type" : "VEC3"
        },
        {
            "bufferView" : 46,
            "componentType" : 5126,
            "count" : 24,
            "type" : "VEC2"
        }
    ],
    "bufferViews" : [
        {
            "buffer" : 0,
            "byteLength" : 2412,
            "byteOffset" : 0
        },
        {
            "buffer" : 0,
            "byteLength" : 2412,
            "byteOffset" : 2412
        },
        {
            "buffer" : 0,
            "byteLength" : 1608,
            "byteOffset" : 4824
        },
        {
            "buffer" : 0,
            "byteLength" : 1074,
            "byteOffset" : 6432
        },
        {
            "buffer" : 0,
            "byteLength" : 16164,
            "byteOffset" : 7508
        },
        {
            "buffer" : 0,
            "byteLength" : 16164,
            "byteOffset" : 23672
        },
        {
            "buffer" : 0,
            "byteLength" : 10776,
            "byteOffset" : 39836
        },
        {
            "buffer" : 0,
            "byteLength" : 6864,
            "byteOffset" : 50612
        },
        {
            "buffer" : 0,
            "byteLength" : 340584,
            "byteOffset" : 57476
        },
        {
            "buffer" : 0,
            "byteLength" : 340584,
            "byteOffset" : 398060
        },
        {
            "buffer" : 0,
            "byteLength" : 227056,
            "byteOffset" : 738644
        },
        {
            "buffer" : 0,
            "byteLength" : 101376,
            "byteOffset" : 965700
        },
        {
            "buffer" : 0,
            "byteLength" : 2664,
            "byteOffset" : 1067076
        },
        {
            "buffer" : 0,
            "byteLength" : 2664,
            "byteOffset" : 1069740
        },
        {
            "buffer" : 0,
            "byteLength" : 1776,
            "byteOffset" : 1072404
        },
        {
            "buffer" : 0,
            "byteLength" : 1116,
            "byteOffset" : 1074180
        },
        {
            "buffer" : 0,
            "byteLength" : 2904,
            "byteOffset" : 1075296
        },
        {
            "buffer" : 0,
            "byteLength" : 2904,
            "byteOffset" : 1078200
        },
        {
            "buffer" : 0,
            "byteLength" : 1936,
            "byteOffset" : 1081104
        },
        {
            "buffer" : 0,
            "byteLength" : 1140,
            "byteOffset" : 1083040
        },
        {
            "buffer" : 0,
            "byteLength" : 2016,
            "byteOffset" : 1084180
        },
        {
            "buffer" : 0,
            "byteLength" : 2016,
            "byteOffset" : 1086196
        },
        {
            "buffer" : 0,
            "byteLength" : 1344,
            "byteOffset" : 1088212
        },
        {
            "buffer" : 0,
            "byteLength" : 504,
            "byteOffset" : 1089556
        },
        {
            "buffer" : 0,
            "byteLength" : 288,
            "byteOffset" : 1090060
        },
        {
            "buffer" : 0,
            "byteLength" : 288,
            "byteOffset" : 1090348
        },
        {
            "buffer" : 0,
            "byteLength" : 192,
            "byteOffset" : 1090636
        },
        {
            "buffer" : 0,
            "byteLength" : 72,
            "byteOffset" : 1090828
        },
        {
            "buffer" : 0,
            "byteLength" : 288,
            "byteOffset" : 1090900
        },
        {
            "buffer" : 0,
            "byteLength" : 288,
            "byteOffset" : 1091188
        },
        {
            "buffer" : 0,
            "byteLength" : 192,
            "byteOffset" : 1091476
        },
        {
            "buffer" : 0,
            "byteLength" : 288,
            "byteOffset" : 1091668
        },
        {
            "buffer" : 0,
            "byteLength" : 288,
            "byteOffset" : 1091956
        },
        {
            "buffer" : 0,
            "byteLength" : 192,
            "byteOffset" : 1092244
        },
        {
            "buffer" : 0,
            "byteLength" : 288,
            "byteOffset" : 1092436
        },
        {
            "buffer" : 0,
            "byteLength" : 288,
            "byteOffset" : 1092724
        },
        {
            "buffer" : 0,
            "byteLength" : 192,
            "byteOffset" : 1093012
        },
        {
            "buffer" : 0,
            "byteLength" : 288,
            "byteOffset" : 1093204
        },
        {
            "buffer" : 0,
            "byteLength" : 288,
            "byteOffset" : 1093492
        },
        {
            "buffer" : 0,
            "byteLength" : 192,
            "byteOffset" : 1093780
        },
        {
            "buffer" : 0,
            "byteLength" : 2724,
            "byteOffset" : 1093972
        },
        {
            "buffer" : 0,
            "byteLength" : 2724,
            "byteOffset" : 1096696
        },
        {
            "buffer" : 0,
            "byteLength" : 1816,
            "byteOffset" : 1099420
        },
        {
            "buffer" : 0,
            "byteLength" : 876,
            "byteOffset" : 1101236
        },
        {
            "buffer" : 0,
            "byteLength" : 288,
            "byteOffset" : 1102112
        },
        {
            "buffer" : 0,
            "byteLength" : 288,
            "byteOffset" : 1102400
        },
        {
            "buffer" : 0,
            "byteLength" : 192,
            "byteOffset" : 1102688
        }
    ],
    "buffers" : [
        {
            "byteLength" : 1102880,
            "uri" : "street.bin"
        }
    ]
}
