{
    "asset" : {
        "generator" : "Khronos glTF Blender I/O v1.0.5",
        "version" : "2.0"
    },
    "scene" : 0,
    "scenes" : [
        {
            "extras" : {
                "glTF2ExportSettings" : {
                    "export_apply" : 1,
                    "export_extras" : 1,
                    "export_format" : "GLTF_SEPARATE",
                    "export_selected" : 1
                }
            },
            "name" : "Scene",
            "nodes" : [
                0,
                1,
                2,
                3,
                4,
                5,
                6,
                7,
                8,
                9,
                10,
                11,
                12,
                13
            ]
        }
    ],
    "nodes" : [
        {
            "name" : "Light",
            "rotation" : [
                0.16907575726509094,
                0.7558803558349609,
                -0.27217137813568115,
                0.570947527885437
            ],
            "translation" : [
                4.076245307922363,
                5.903861999511719,
                -1.0054539442062378
            ]
        },
        {
            "name" : "Camera",
            "rotation" : [
                0.483536034822464,
                0.33687159419059753,
                -0.20870360732078552,
                0.7804827094078064
            ],
            "translation" : [
                7.358891487121582,
                4.958309173583984,
                6.925790786743164
            ]
        },
        {
            "mesh" : 0,
            "name" : "zone"
        },
        {
            "mesh" : 1,
            "name" : "door",
            "translation" : [
                -0.003937721252441406,
                0.003937048837542534,
                0.499969482421875
            ]
        },
        {
            "mesh" : 2,
            "name" : "Cube",
            "translation" : [
                9.677989959716797,
                0.5,
                3.3324804306030273
            ]
        },
        {
            "mesh" : 3,
            "name" : "Cube.001",
            "rotation" : [
                0,
                0.7071067690849304,
                0,
                0.7071067690849304
            ],
            "translation" : [
                11.57798957824707,
                0.5,
                0.62539142370224
            ]
        },
        {
            "mesh" : 4,
            "name" : "Cube.002",
            "rotation" : [
                0,
                0.7071067690849304,
                0,
                0.7071067690849304
            ],
            "translation" : [
                10.287469863891602,
                1.2000000476837158,
                -1.6256883144378662
            ]
        },
        {
            "mesh" : 5,
            "name" : "Cube.003",
            "rotation" : [
                0,
                0.7071067690849304,
                0,
                0.7071067690849304
            ],
            "translation" : [
                10.287469863891602,
                1.2000000476837158,
                -3.406200408935547
            ]
        },
        {
            "mesh" : 6,
            "name" : "Cube.004",
            "rotation" : [
                0,
                0.7071067690849304,
                0,
                0.7071067690849304
            ],
            "translation" : [
                8.75645637512207,
                1.2000000476837158,
                -1.6256883144378662
            ]
        },
        {
            "mesh" : 7,
            "name" : "Cube.005",
            "rotation" : [
                0,
                0.7071067690849304,
                0,
                0.7071067690849304
            ],
            "translation" : [
                8.75645637512207,
                1.2000000476837158,
                -3.406200408935547
            ]
        },
        {
            "mesh" : 8,
            "name" : "Cube.006",
            "rotation" : [
                0,
                0.7071067690849304,
                0,
                0.7071067690849304
            ],
            "translation" : [
                7.270806312561035,
                1.2000000476837158,
                -1.6256883144378662
            ]
        },
        {
            "mesh" : 9,
            "name" : "Cube.007",
            "rotation" : [
                0,
                0.7071067690849304,
                0,
                0.7071067690849304
            ],
            "translation" : [
                7.270806312561035,
                1.2000000476837158,
                -3.406200408935547
            ]
        },
        {
            "mesh" : 10,
            "name" : "plafond",
            "translation" : [
                11.600051879882812,
                1.4500001668930054,
                -6.83457088470459
            ]
        },
        {
            "mesh" : 11,
            "name" : "zone.001"
        }
    ],
    "materials" : [
        {
            "doubleSided" : true,
            "name" : "zone_mat",
            "pbrMetallicRoughness" : {
                "baseColorFactor" : [
                    0.1385321170091629,
                    0.1953735649585724,
                    0.2330152839422226,
                    1
                ],
                "metallicFactor" : 0,
                "roughnessFactor" : 0.5
            }
        },
        {
            "doubleSided" : true,
            "name" : "door_mat",
            "pbrMetallicRoughness" : {
                "baseColorFactor" : [
                    0.0927538275718689,
                    0.3031974732875824,
                    0.21662160754203796,
                    1
                ],
                "metallicFactor" : 0,
                "roughnessFactor" : 0.5
            }
        },
        {
            "doubleSided" : true,
            "name" : "Material",
            "pbrMetallicRoughness" : {
                "baseColorFactor" : [
                    0.800000011920929,
                    0.800000011920929,
                    0.800000011920929,
                    1
                ],
                "metallicFactor" : 0,
                "roughnessFactor" : 0.4000000059604645
            }
        }
    ],
    "meshes" : [
        {
            "name" : "Plane",
            "primitives" : [
                {
                    "attributes" : {
                        "POSITION" : 0,
                        "NORMAL" : 1,
                        "TEXCOORD_0" : 2
                    },
                    "indices" : 3,
                    "material" : 0
                }
            ]
        },
        {
            "name" : "Plane.001",
            "primitives" : [
                {
                    "attributes" : {
                        "POSITION" : 4,
                        "NORMAL" : 5,
                        "TEXCOORD_0" : 6
                    },
                    "indices" : 7,
                    "material" : 1
                }
            ]
        },
        {
            "name" : "Cube",
            "primitives" : [
                {
                    "attributes" : {
                        "POSITION" : 8,
                        "NORMAL" : 9,
                        "TEXCOORD_0" : 10
                    },
                    "indices" : 7,
                    "material" : 2
                }
            ]
        },
        {
            "name" : "Cube.001",
            "primitives" : [
                {
                    "attributes" : {
                        "POSITION" : 11,
                        "NORMAL" : 12,
                        "TEXCOORD_0" : 13
                    },
                    "indices" : 7,
                    "material" : 2
                }
            ]
        },
        {
            "name" : "Cube.002",
            "primitives" : [
                {
                    "attributes" : {
                        "POSITION" : 14,
                        "NORMAL" : 15,
                        "TEXCOORD_0" : 16
                    },
                    "indices" : 7
                }
            ]
        },
        {
            "name" : "Cube.003",
            "primitives" : [
                {
                    "attributes" : {
                        "POSITION" : 17,
                        "NORMAL" : 18,
                        "TEXCOORD_0" : 19
                    },
                    "indices" : 7
                }
            ]
        },
        {
            "name" : "Cube.004",
            "primitives" : [
                {
                    "attributes" : {
                        "POSITION" : 20,
                        "NORMAL" : 21,
                        "TEXCOORD_0" : 22
                    },
                    "indices" : 7
                }
            ]
        },
        {
            "name" : "Cube.005",
            "primitives" : [
                {
                    "attributes" : {
                        "POSITION" : 23,
                        "NORMAL" : 24,
                        "TEXCOORD_0" : 25
                    },
                    "indices" : 7
                }
            ]
        },
        {
            "name" : "Cube.006",
            "primitives" : [
                {
                    "attributes" : {
                        "POSITION" : 26,
                        "NORMAL" : 27,
                        "TEXCOORD_0" : 28
                    },
                    "indices" : 7
                }
            ]
        },
        {
            "name" : "Cube.007",
            "primitives" : [
                {
                    "attributes" : {
                        "POSITION" : 29,
                        "NORMAL" : 30,
                        "TEXCOORD_0" : 31
                    },
                    "indices" : 7,
                    "material" : 2
                }
            ]
        },
        {
            "name" : "Cube.008",
            "primitives" : [
                {
                    "attributes" : {
                        "POSITION" : 32,
                        "NORMAL" : 33,
                        "TEXCOORD_0" : 34
                    },
                    "indices" : 7
                }
            ]
        },
        {
            "name" : "Plane.002",
            "primitives" : [
                {
                    "attributes" : {
                        "POSITION" : 35,
                        "NORMAL" : 36,
                        "TEXCOORD_0" : 37
                    },
                    "indices" : 38,
                    "material" : 0
                }
            ]
        }
    ],
    "accessors" : [
        {
            "bufferView" : 0,
            "componentType" : 5126,
            "count" : 662,
            "max" : [
                21.599998474121094,
                2.4000000953674316,
                11
            ],
            "min" : [
                -5,
                0,
                -12
            ],
            "type" : "VEC3"
        },
        {
            "bufferView" : 1,
            "componentType" : 5126,
            "count" : 662,
            "type" : "VEC3"
        },
        {
            "bufferView" : 2,
            "componentType" : 5126,
            "count" : 662,
            "type" : "VEC2"
        },
        {
            "bufferView" : 3,
            "componentType" : 5123,
            "count" : 1398,
            "type" : "SCALAR"
        },
        {
            "bufferView" : 4,
            "componentType" : 5126,
            "count" : 24,
            "max" : [
                0.053937796503305435,
                1.996062994003296,
                3.0517578125e-05
            ],
            "min" : [
                -0.04606225714087486,
                -0.003937048837542534,
                -0.999969482421875
            ],
            "type" : "VEC3"
        },
        {
            "bufferView" : 5,
            "componentType" : 5126,
            "count" : 24,
            "type" : "VEC3"
        },
        {
            "bufferView" : 6,
            "componentType" : 5126,
            "count" : 24,
            "type" : "VEC2"
        },
        {
            "bufferView" : 7,
            "componentType" : 5123,
            "count" : 36,
            "type" : "SCALAR"
        },
        {
            "bufferView" : 8,
            "componentType" : 5126,
            "count" : 24,
            "max" : [
                2,
                0.5,
                0.10000000149011612
            ],
            "min" : [
                -2,
                -0.5,
                -0.10000000149011612
            ],
            "type" : "VEC3"
        },
        {
            "bufferView" : 9,
            "componentType" : 5126,
            "count" : 24,
            "type" : "VEC3"
        },
        {
            "bufferView" : 10,
            "componentType" : 5126,
            "count" : 24,
            "type" : "VEC2"
        },
        {
            "bufferView" : 11,
            "componentType" : 5126,
            "count" : 24,
            "max" : [
                1.5,
                0.5,
                0.10000000149011612
            ],
            "min" : [
                -1.5,
                -0.5,
                -0.10000000149011612
            ],
            "type" : "VEC3"
        },
        {
            "bufferView" : 12,
            "componentType" : 5126,
            "count" : 24,
            "type" : "VEC3"
        },
        {
            "bufferView" : 13,
            "componentType" : 5126,
            "count" : 24,
            "type" : "VEC2"
        },
        {
            "bufferView" : 14,
            "componentType" : 5126,
            "count" : 24,
            "max" : [
                0.25,
                1.2000000476837158,
                0.25
            ],
            "min" : [
                -0.25,
                -1.2000000476837158,
                -0.25
            ],
            "type" : "VEC3"
        },
        {
            "bufferView" : 15,
            "componentType" : 5126,
            "count" : 24,
            "type" : "VEC3"
        },
        {
            "bufferView" : 16,
            "componentType" : 5126,
            "count" : 24,
            "type" : "VEC2"
        },
        {
            "bufferView" : 17,
            "componentType" : 5126,
            "count" : 24,
            "max" : [
                0.25,
                1.2000000476837158,
                0.25
            ],
            "min" : [
                -0.25,
                -1.2000000476837158,
                -0.25
            ],
            "type" : "VEC3"
        },
        {
            "bufferView" : 18,
            "componentType" : 5126,
            "count" : 24,
            "type" : "VEC3"
        },
        {
            "bufferView" : 19,
            "componentType" : 5126,
            "count" : 24,
            "type" : "VEC2"
        },
        {
            "bufferView" : 20,
            "componentType" : 5126,
            "count" : 24,
            "max" : [
                0.25,
                1.2000000476837158,
                0.25
            ],
            "min" : [
                -0.25,
                -1.2000000476837158,
                -0.25
            ],
            "type" : "VEC3"
        },
        {
            "bufferView" : 21,
            "componentType" : 5126,
            "count" : 24,
            "type" : "VEC3"
        },
        {
            "bufferView" : 22,
            "componentType" : 5126,
            "count" : 24,
            "type" : "VEC2"
        },
        {
            "bufferView" : 23,
            "componentType" : 5126,
            "count" : 24,
            "max" : [
                0.25,
                1.2000000476837158,
                0.25
            ],
            "min" : [
                -0.25,
                -1.2000000476837158,
                -0.25
            ],
            "type" : "VEC3"
        },
        {
            "bufferView" : 24,
            "componentType" : 5126,
            "count" : 24,
            "type" : "VEC3"
        },
        {
            "bufferView" : 25,
            "componentType" : 5126,
            "count" : 24,
            "type" : "VEC2"
        },
        {
            "bufferView" : 26,
            "componentType" : 5126,
            "count" : 24,
            "max" : [
                0.25,
                1.2000000476837158,
                0.25
            ],
            "min" : [
                -0.25,
                -1.2000000476837158,
                -0.25
            ],
            "type" : "VEC3"
        },
        {
            "bufferView" : 27,
            "componentType" : 5126,
            "count" : 24,
            "type" : "VEC3"
        },
        {
            "bufferView" : 28,
            "componentType" : 5126,
            "count" : 24,
            "type" : "VEC2"
        },
        {
            "bufferView" : 29,
            "componentType" : 5126,
            "count" : 24,
            "max" : [
                0.25,
                1.2000000476837158,
                0.25
            ],
            "min" : [
                -0.25,
                -1.2000000476837158,
                -0.25
            ],
            "type" : "VEC3"
        },
        {
            "bufferView" : 30,
            "componentType" : 5126,
            "count" : 24,
            "type" : "VEC3"
        },
        {
            "bufferView" : 31,
            "componentType" : 5126,
            "count" : 24,
            "type" : "VEC2"
        },
        {
            "bufferView" : 32,
            "componentType" : 5126,
            "count" : 24,
            "max" : [
                0.75,
                0.550000011920929,
                0.75
            ],
            "min" : [
                -0.75,
                -0.550000011920929,
                -0.75
            ],
            "type" : "VEC3"
        },
        {
            "bufferView" : 33,
            "componentType" : 5126,
            "count" : 24,
            "type" : "VEC3"
        },
        {
            "bufferView" : 34,
            "componentType" : 5126,
            "count" : 24,
            "type" : "VEC2"
        },
        {
            "bufferView" : 35,
            "componentType" : 5126,
            "count" : 83,
            "max" : [
                13.399999618530273,
                2.4000000953674316,
                5
            ],
            "min" : [
                -5,
                2.4000000953674316,
                -5
            ],
            "type" : "VEC3"
        },
        {
            "bufferView" : 36,
            "componentType" : 5126,
            "count" : 83,
            "type" : "VEC3"
        },
        {
            "bufferView" : 37,
            "componentType" : 5126,
            "count" : 83,
            "type" : "VEC2"
        },
        {
            "bufferView" : 38,
            "componentType" : 5123,
            "count" : 204,
            "type" : "SCALAR"
        }
    ],
    "bufferViews" : [
        {
            "buffer" : 0,
            "byteLength" : 7944,
            "byteOffset" : 0
        },
        {
            "buffer" : 0,
            "byteLength" : 7944,
            "byteOffset" : 7944
        },
        {
            "buffer" : 0,
            "byteLength" : 5296,
            "byteOffset" : 15888
        },
        {
            "buffer" : 0,
            "byteLength" : 2796,
            "byteOffset" : 21184
        },
        {
            "buffer" : 0,
            "byteLength" : 288,
            "byteOffset" : 23980
        },
        {
            "buffer" : 0,
            "byteLength" : 288,
            "byteOffset" : 24268
        },
        {
            "buffer" : 0,
            "byteLength" : 192,
            "byteOffset" : 24556
        },
        {
            "buffer" : 0,
            "byteLength" : 72,
            "byteOffset" : 24748
        },
        {
            "buffer" : 0,
            "byteLength" : 288,
            "byteOffset" : 24820
        },
        {
            "buffer" : 0,
            "byteLength" : 288,
            "byteOffset" : 25108
        },
        {
            "buffer" : 0,
            "byteLength" : 192,
            "byteOffset" : 25396
        },
        {
            "buffer" : 0,
            "byteLength" : 288,
            "byteOffset" : 25588
        },
        {
            "buffer" : 0,
            "byteLength" : 288,
            "byteOffset" : 25876
        },
        {
            "buffer" : 0,
            "byteLength" : 192,
            "byteOffset" : 26164
        },
        {
            "buffer" : 0,
            "byteLength" : 288,
            "byteOffset" : 26356
        },
        {
            "buffer" : 0,
            "byteLength" : 288,
            "byteOffset" : 26644
        },
        {
            "buffer" : 0,
            "byteLength" : 192,
            "byteOffset" : 26932
        },
        {
            "buffer" : 0,
            "byteLength" : 288,
            "byteOffset" : 27124
        },
        {
            "buffer" : 0,
            "byteLength" : 288,
            "byteOffset" : 27412
        },
        {
            "buffer" : 0,
            "byteLength" : 192,
            "byteOffset" : 27700
        },
        {
            "buffer" : 0,
            "byteLength" : 288,
            "byteOffset" : 27892
        },
        {
            "buffer" : 0,
            "byteLength" : 288,
            "byteOffset" : 28180
        },
        {
            "buffer" : 0,
            "byteLength" : 192,
            "byteOffset" : 28468
        },
        {
            "buffer" : 0,
            "byteLength" : 288,
            "byteOffset" : 28660
        },
        {
            "buffer" : 0,
            "byteLength" : 288,
            "byteOffset" : 28948
        },
        {
            "buffer" : 0,
            "byteLength" : 192,
            "byteOffset" : 29236
        },
        {
            "buffer" : 0,
            "byteLength" : 288,
            "byteOffset" : 29428
        },
        {
            "buffer" : 0,
            "byteLength" : 288,
            "byteOffset" : 29716
        },
        {
            "buffer" : 0,
            "byteLength" : 192,
            "byteOffset" : 30004
        },
        {
            "buffer" : 0,
            "byteLength" : 288,
            "byteOffset" : 30196
        },
        {
            "buffer" : 0,
            "byteLength" : 288,
            "byteOffset" : 30484
        },
        {
            "buffer" : 0,
            "byteLength" : 192,
            "byteOffset" : 30772
        },
        {
            "buffer" : 0,
            "byteLength" : 288,
            "byteOffset" : 30964
        },
        {
            "buffer" : 0,
            "byteLength" : 288,
            "byteOffset" : 31252
        },
        {
            "buffer" : 0,
            "byteLength" : 192,
            "byteOffset" : 31540
        },
        {
            "buffer" : 0,
            "byteLength" : 996,
            "byteOffset" : 31732
        },
        {
            "buffer" : 0,
            "byteLength" : 996,
            "byteOffset" : 32728
        },
        {
            "buffer" : 0,
            "byteLength" : 664,
            "byteOffset" : 33724
        },
        {
            "buffer" : 0,
            "byteLength" : 408,
            "byteOffset" : 34388
        }
    ],
    "buffers" : [
        {
            "byteLength" : 34796,
            "uri" : "zone01.bin"
        }
    ]
}
