{
    "asset" : {
        "generator" : "Khronos glTF Blender I/O v1.0.5",
        "version" : "2.0"
    },
    "scene" : 0,
    "scenes" : [
        {
            "name" : "Scene",
            "nodes" : [
                0,
                1,
                2,
                3
            ]
        }
    ],
    "nodes" : [
        {
            "mesh" : 0,
            "name" : "tente"
        },
        {
            "mesh" : 1,
            "name" : "feu"
        },
        {
            "mesh" : 2,
            "name" : "sacouchage"
        },
        {
            "mesh" : 3,
            "name" : "lampe",
            "translation" : [
                -0.5998637676239014,
                -1.3008606433868408,
                0
            ]
        }
    ],
    "materials" : [
        {
            "doubleSided" : true,
            "name" : "batonTente",
            "pbrMetallicRoughness" : {
                "baseColorFactor" : [
                    0.3031974732875824,
                    0.19339272379875183,
                    0.06152772530913353,
                    1
                ],
                "metallicFactor" : 0,
                "roughnessFactor" : 0.7416666746139526
            }
        },
        {
            "doubleSided" : true,
            "name" : "tente",
            "pbrMetallicRoughness" : {
                "baseColorFactor" : [
                    0.17335502803325653,
                    0.17335502803325653,
                    0.17335502803325653,
                    1
                ],
                "metallicFactor" : 0,
                "roughnessFactor" : 0.8833333253860474
            }
        },
        {
            "doubleSided" : true,
            "name" : "bois",
            "pbrMetallicRoughness" : {
                "baseColorFactor" : [
                    0.03106340952217579,
                    0.013364894315600395,
                    0.0036424670834094286,
                    1
                ],
                "metallicFactor" : 0,
                "roughnessFactor" : 0.9666666984558105
            }
        },
        {
            "doubleSided" : true,
            "name" : "pierre",
            "pbrMetallicRoughness" : {
                "baseColorFactor" : [
                    0.06372065097093582,
                    0.06372065097093582,
                    0.06372065097093582,
                    1
                ],
                "metallicFactor" : 0.10833333432674408,
                "roughnessFactor" : 0.8916666507720947
            }
        },
        {
            "doubleSided" : true,
            "name" : "mat",
            "pbrMetallicRoughness" : {
                "baseColorFactor" : [
                    0.1237087994813919,
                    0.0191410630941391,
                    0.009785512462258339,
                    1
                ],
                "metallicFactor" : 0,
                "roughnessFactor" : 0.8999999761581421
            }
        },
        {
            "doubleSided" : true,
            "name" : "gaz",
            "pbrMetallicRoughness" : {
                "baseColorFactor" : [
                    0.015320481732487679,
                    0.018537048250436783,
                    0.44797858595848083,
                    1
                ],
                "metallicFactor" : 0,
                "roughnessFactor" : 0.5
            }
        },
        {
            "doubleSided" : true,
            "name" : "plaquegaz",
            "pbrMetallicRoughness" : {
                "baseColorFactor" : [
                    0.07001208513975143,
                    0.11493556201457977,
                    0.0698477178812027,
                    1
                ],
                "metallicFactor" : 0,
                "roughnessFactor" : 0.5
            }
        }
    ],
    "meshes" : [
        {
            "name" : "Cube.009",
            "primitives" : [
                {
                    "attributes" : {
                        "POSITION" : 0,
                        "NORMAL" : 1,
                        "TEXCOORD_0" : 2
                    },
                    "indices" : 3,
                    "material" : 0
                },
                {
                    "attributes" : {
                        "POSITION" : 4,
                        "NORMAL" : 5,
                        "TEXCOORD_0" : 6
                    },
                    "indices" : 7,
                    "material" : 1
                }
            ]
        },
        {
            "name" : "Cube.026",
            "primitives" : [
                {
                    "attributes" : {
                        "POSITION" : 8,
                        "NORMAL" : 9,
                        "TEXCOORD_0" : 10
                    },
                    "indices" : 11,
                    "material" : 2
                },
                {
                    "attributes" : {
                        "POSITION" : 12,
                        "NORMAL" : 13,
                        "TEXCOORD_0" : 14
                    },
                    "indices" : 15,
                    "material" : 3
                }
            ]
        },
        {
            "name" : "Cube.027",
            "primitives" : [
                {
                    "attributes" : {
                        "POSITION" : 16,
                        "NORMAL" : 17,
                        "TEXCOORD_0" : 18
                    },
                    "indices" : 19,
                    "material" : 4
                }
            ]
        },
        {
            "name" : "Cylinder",
            "primitives" : [
                {
                    "attributes" : {
                        "POSITION" : 20,
                        "NORMAL" : 21,
                        "TEXCOORD_0" : 22
                    },
                    "indices" : 23,
                    "material" : 5
                },
                {
                    "attributes" : {
                        "POSITION" : 24,
                        "NORMAL" : 25,
                        "TEXCOORD_0" : 26
                    },
                    "indices" : 27,
                    "material" : 6
                }
            ]
        }
    ],
    "accessors" : [
        {
            "bufferView" : 0,
            "componentType" : 5126,
            "count" : 96,
            "max" : [
                1.0222914218902588,
                0.9944624900817871,
                1.115591049194336
            ],
            "min" : [
                -1.0123496055603027,
                -0.8641906976699829,
                -0.9344090819358826
            ],
            "type" : "VEC3"
        },
        {
            "bufferView" : 1,
            "componentType" : 5126,
            "count" : 96,
            "type" : "VEC3"
        },
        {
            "bufferView" : 2,
            "componentType" : 5126,
            "count" : 96,
            "type" : "VEC2"
        },
        {
            "bufferView" : 3,
            "componentType" : 5123,
            "count" : 144,
            "type" : "SCALAR"
        },
        {
            "bufferView" : 4,
            "componentType" : 5126,
            "count" : 66,
            "max" : [
                1.0166898965835571,
                0.897860050201416,
                1.0955908298492432
            ],
            "min" : [
                -1.0179510116577148,
                -0.8441907167434692,
                -0.9144091010093689
            ],
            "type" : "VEC3"
        },
        {
            "bufferView" : 5,
            "componentType" : 5126,
            "count" : 66,
            "type" : "VEC3"
        },
        {
            "bufferView" : 6,
            "componentType" : 5126,
            "count" : 66,
            "type" : "VEC2"
        },
        {
            "bufferView" : 7,
            "componentType" : 5123,
            "count" : 96,
            "type" : "SCALAR"
        },
        {
            "bufferView" : 8,
            "componentType" : 5126,
            "count" : 1800,
            "max" : [
                1.4068266153335571,
                -0.5881228446960449,
                3.798182487487793
            ],
            "min" : [
                0.8859778642654419,
                -0.8480541110038757,
                3.3038275241851807
            ],
            "type" : "VEC3"
        },
        {
            "bufferView" : 9,
            "componentType" : 5126,
            "count" : 1800,
            "type" : "VEC3"
        },
        {
            "bufferView" : 10,
            "componentType" : 5126,
            "count" : 1800,
            "type" : "VEC2"
        },
        {
            "bufferView" : 11,
            "componentType" : 5123,
            "count" : 2700,
            "type" : "SCALAR"
        },
        {
            "bufferView" : 12,
            "componentType" : 5126,
            "count" : 5376,
            "max" : [
                1.4997111558914185,
                -0.7362379431724548,
                3.8885116577148438
            ],
            "min" : [
                0.808318018913269,
                -0.8544323444366455,
                3.178699254989624
            ],
            "type" : "VEC3"
        },
        {
            "bufferView" : 13,
            "componentType" : 5126,
            "count" : 5376,
            "type" : "VEC3"
        },
        {
            "bufferView" : 14,
            "componentType" : 5126,
            "count" : 5376,
            "type" : "VEC2"
        },
        {
            "bufferView" : 15,
            "componentType" : 5123,
            "count" : 8064,
            "type" : "SCALAR"
        },
        {
            "bufferView" : 16,
            "componentType" : 5126,
            "count" : 1130,
            "max" : [
                0.7967491149902344,
                -0.7154238224029541,
                1.0211372375488281
            ],
            "min" : [
                -0.20325089991092682,
                -0.8441907167434692,
                -0.9044091701507568
            ],
            "type" : "VEC3"
        },
        {
            "bufferView" : 17,
            "componentType" : 5126,
            "count" : 1130,
            "type" : "VEC3"
        },
        {
            "bufferView" : 18,
            "componentType" : 5126,
            "count" : 1130,
            "type" : "VEC2"
        },
        {
            "bufferView" : 19,
            "componentType" : 5123,
            "count" : 1794,
            "type" : "SCALAR"
        },
        {
            "bufferView" : 20,
            "componentType" : 5126,
            "count" : 131,
            "max" : [
                0.14263713359832764,
                0.5733671188354492,
                0.551181972026825
            ],
            "min" : [
                0.022637128829956055,
                0.4233667850494385,
                0.43118196725845337
            ],
            "type" : "VEC3"
        },
        {
            "bufferView" : 21,
            "componentType" : 5126,
            "count" : 131,
            "type" : "VEC3"
        },
        {
            "bufferView" : 22,
            "componentType" : 5126,
            "count" : 131,
            "type" : "VEC2"
        },
        {
            "bufferView" : 23,
            "componentType" : 5123,
            "count" : 474,
            "type" : "SCALAR"
        },
        {
            "bufferView" : 24,
            "componentType" : 5126,
            "count" : 232,
            "max" : [
                0.13979677855968475,
                0.7783626317977905,
                0.5483419299125671
            ],
            "min" : [
                0.025477498769760132,
                0.5733671188354492,
                0.4340226650238037
            ],
            "type" : "VEC3"
        },
        {
            "bufferView" : 25,
            "componentType" : 5126,
            "count" : 232,
            "type" : "VEC3"
        },
        {
            "bufferView" : 26,
            "componentType" : 5126,
            "count" : 232,
            "type" : "VEC2"
        },
        {
            "bufferView" : 27,
            "componentType" : 5123,
            "count" : 882,
            "type" : "SCALAR"
        }
    ],
    "bufferViews" : [
        {
            "buffer" : 0,
            "byteLength" : 1152,
            "byteOffset" : 0
        },
        {
            "buffer" : 0,
            "byteLength" : 1152,
            "byteOffset" : 1152
        },
        {
            "buffer" : 0,
            "byteLength" : 768,
            "byteOffset" : 2304
        },
        {
            "buffer" : 0,
            "byteLength" : 288,
            "byteOffset" : 3072
        },
        {
            "buffer" : 0,
            "byteLength" : 792,
            "byteOffset" : 3360
        },
        {
            "buffer" : 0,
            "byteLength" : 792,
            "byteOffset" : 4152
        },
        {
            "buffer" : 0,
            "byteLength" : 528,
            "byteOffset" : 4944
        },
        {
            "buffer" : 0,
            "byteLength" : 192,
            "byteOffset" : 5472
        },
        {
            "buffer" : 0,
            "byteLength" : 21600,
            "byteOffset" : 5664
        },
        {
            "buffer" : 0,
            "byteLength" : 21600,
            "byteOffset" : 27264
        },
        {
            "buffer" : 0,
            "byteLength" : 14400,
            "byteOffset" : 48864
        },
        {
            "buffer" : 0,
            "byteLength" : 5400,
            "byteOffset" : 63264
        },
        {
            "buffer" : 0,
            "byteLength" : 64512,
            "byteOffset" : 68664
        },
        {
            "buffer" : 0,
            "byteLength" : 64512,
            "byteOffset" : 133176
        },
        {
            "buffer" : 0,
            "byteLength" : 43008,
            "byteOffset" : 197688
        },
        {
            "buffer" : 0,
            "byteLength" : 16128,
            "byteOffset" : 240696
        },
        {
            "buffer" : 0,
            "byteLength" : 13560,
            "byteOffset" : 256824
        },
        {
            "buffer" : 0,
            "byteLength" : 13560,
            "byteOffset" : 270384
        },
        {
            "buffer" : 0,
            "byteLength" : 9040,
            "byteOffset" : 283944
        },
        {
            "buffer" : 0,
            "byteLength" : 3588,
            "byteOffset" : 292984
        },
        {
            "buffer" : 0,
            "byteLength" : 1572,
            "byteOffset" : 296572
        },
        {
            "buffer" : 0,
            "byteLength" : 1572,
            "byteOffset" : 298144
        },
        {
            "buffer" : 0,
            "byteLength" : 1048,
            "byteOffset" : 299716
        },
        {
            "buffer" : 0,
            "byteLength" : 948,
            "byteOffset" : 300764
        },
        {
            "buffer" : 0,
            "byteLength" : 2784,
            "byteOffset" : 301712
        },
        {
            "buffer" : 0,
            "byteLength" : 2784,
            "byteOffset" : 304496
        },
        {
            "buffer" : 0,
            "byteLength" : 1856,
            "byteOffset" : 307280
        },
        {
            "buffer" : 0,
            "byteLength" : 1764,
            "byteOffset" : 309136
        }
    ],
    "buffers" : [
        {
            "byteLength" : 310900,
            "uri" : "feu.bin"
        }
    ]
}
