{
    "asset" : {
        "generator" : "Khronos glTF Blender I/O v1.0.5",
        "version" : "2.0"
    },
    "scene" : 0,
    "scenes" : [
        {
            "name" : "Scene",
            "nodes" : [
                0,
                1
            ]
        }
    ],
    "nodes" : [
        {
            "mesh" : 0,
            "name" : "victorian",
            "translation" : [
                7.0426506996154785,
                0.07245635986328125,
                6.527382850646973
            ]
        },
        {
            "mesh" : 1,
            "name" : "Victorian House 2 8 edit 2.002",
            "translation" : [
                7.0426506996154785,
                0.07245635986328125,
                6.527382850646973
            ]
        }
    ],
    "materials" : [
        {
            "doubleSided" : true,
            "name" : "_5",
            "pbrMetallicRoughness" : {
                "baseColorTexture" : {
                    "index" : 0,
                    "texCoord" : 0
                },
                "metallicFactor" : 0,
                "roughnessFactor" : 1
            }
        },
        {
            "doubleSided" : true,
            "name" : "_11",
            "pbrMetallicRoughness" : {
                "baseColorTexture" : {
                    "index" : 1,
                    "texCoord" : 0
                },
                "metallicFactor" : 0,
                "roughnessFactor" : 1
            }
        },
        {
            "doubleSided" : true,
            "name" : "Roofing_Shingles_GAF_Estates",
            "pbrMetallicRoughness" : {
                "baseColorTexture" : {
                    "index" : 2,
                    "texCoord" : 0
                },
                "metallicFactor" : 0,
                "roughnessFactor" : 1
            }
        }
    ],
    "meshes" : [
        {
            "name" : "victorian",
            "primitives" : [
                {
                    "attributes" : {
                        "POSITION" : 0,
                        "NORMAL" : 1
                    },
                    "indices" : 2,
                    "material" : 0
                },
                {
                    "attributes" : {
                        "POSITION" : 3,
                        "NORMAL" : 4
                    },
                    "indices" : 5,
                    "material" : 1
                }
            ]
        },
        {
            "name" : "Victorian House 2 8 edit 2.002",
            "primitives" : [
                {
                    "attributes" : {
                        "POSITION" : 6,
                        "NORMAL" : 7,
                        "TEXCOORD_0" : 8
                    },
                    "indices" : 9,
                    "material" : 2
                }
            ]
        }
    ],
    "textures" : [
        {
            "source" : 0
        },
        {
            "source" : 1
        },
        {
            "source" : 2
        }
    ],
    "images" : [
        {
            "mimeType" : "image/jpeg",
            "name" : "_5",
            "uri" : "_5.jpg"
        },
        {
            "mimeType" : "image/jpeg",
            "name" : "_11",
            "uri" : "_11.jpg"
        },
        {
            "mimeType" : "image/jpeg",
            "name" : "Roofing_Shingles_GAF_Estates",
            "uri" : "Roofing_Shingles_GAF_Estates.jpg"
        }
    ],
    "accessors" : [
        {
            "bufferView" : 0,
            "componentType" : 5126,
            "count" : 119,
            "max" : [
                3.0423531532287598,
                5.048542499542236,
                3.500030517578125
            ],
            "min" : [
                -3.1176509857177734,
                -0.07245779037475586,
                -2.6799774169921875
            ],
            "type" : "VEC3"
        },
        {
            "bufferView" : 1,
            "componentType" : 5126,
            "count" : 119,
            "type" : "VEC3"
        },
        {
            "bufferView" : 2,
            "componentType" : 5123,
            "count" : 180,
            "type" : "SCALAR"
        },
        {
            "bufferView" : 3,
            "componentType" : 5126,
            "count" : 9804,
            "max" : [
                3.1146130561828613,
                5.048542499542236,
                3.541623115539551
            ],
            "min" : [
                -3.1176509857177734,
                -0.07245779037475586,
                -2.6986446380615234
            ],
            "type" : "VEC3"
        },
        {
            "bufferView" : 4,
            "componentType" : 5126,
            "count" : 9804,
            "type" : "VEC3"
        },
        {
            "bufferView" : 5,
            "componentType" : 5123,
            "count" : 23283,
            "type" : "SCALAR"
        },
        {
            "bufferView" : 6,
            "componentType" : 5126,
            "count" : 44,
            "max" : [
                3.4086508750915527,
                8.538918495178223,
                3.70361328125
            ],
            "min" : [
                -3.2572619915008545,
                4.746090888977051,
                -3.1923322677612305
            ],
            "type" : "VEC3"
        },
        {
            "bufferView" : 7,
            "componentType" : 5126,
            "count" : 44,
            "type" : "VEC3"
        },
        {
            "bufferView" : 8,
            "componentType" : 5126,
            "count" : 44,
            "type" : "VEC2"
        },
        {
            "bufferView" : 9,
            "componentType" : 5123,
            "count" : 75,
            "type" : "SCALAR"
        }
    ],
    "bufferViews" : [
        {
            "buffer" : 0,
            "byteLength" : 1428,
            "byteOffset" : 0
        },
        {
            "buffer" : 0,
            "byteLength" : 1428,
            "byteOffset" : 1428
        },
        {
            "buffer" : 0,
            "byteLength" : 360,
            "byteOffset" : 2856
        },
        {
            "buffer" : 0,
            "byteLength" : 117648,
            "byteOffset" : 3216
        },
        {
            "buffer" : 0,
            "byteLength" : 117648,
            "byteOffset" : 120864
        },
        {
            "buffer" : 0,
            "byteLength" : 46566,
            "byteOffset" : 238512
        },
        {
            "buffer" : 0,
            "byteLength" : 528,
            "byteOffset" : 285080
        },
        {
            "buffer" : 0,
            "byteLength" : 528,
            "byteOffset" : 285608
        },
        {
            "buffer" : 0,
            "byteLength" : 352,
            "byteOffset" : 286136
        },
        {
            "buffer" : 0,
            "byteLength" : 150,
            "byteOffset" : 286488
        }
    ],
    "buffers" : [
        {
            "byteLength" : 286640,
            "uri" : "victorian.bin"
        }
    ]
}
