{
    "asset" : {
        "generator" : "Khronos glTF Blender I/O v1.0.5",
        "version" : "2.0"
    },
    "scene" : 0,
    "scenes" : [
        {
            "extras" : {
                "glTF2ExportSettings" : {
                    "export_apply" : 1,
                    "export_extras" : 1,
                    "export_format" : "GLTF_SEPARATE",
                    "export_selected" : 1
                }
            },
            "name" : "Scene",
            "nodes" : [
                0,
                1,
                2,
                3,
                4
            ]
        }
    ],
    "nodes" : [
        {
            "mesh" : 0,
            "name" : "casier"
        },
        {
            "name" : "Light",
            "rotation" : [
                0.16907575726509094,
                0.7558803558349609,
                -0.27217137813568115,
                0.570947527885437
            ],
            "translation" : [
                4.076245307922363,
                5.903861999511719,
                -1.0054539442062378
            ]
        },
        {
            "name" : "Camera",
            "rotation" : [
                0.483536034822464,
                0.33687159419059753,
                -0.20870360732078552,
                0.7804827094078064
            ],
            "translation" : [
                7.358891487121582,
                4.958309173583984,
                6.925790786743164
            ]
        },
        {
            "mesh" : 1,
            "name" : "doorLeft",
            "translation" : [
                0.3100019693374634,
                -0.8853830695152283,
                0.38433706760406494
            ]
        },
        {
            "mesh" : 2,
            "name" : "doorRight",
            "translation" : [
                0.3100019693374634,
                -0.8853830695152283,
                -0.3799999952316284
            ]
        }
    ],
    "materials" : [
        {
            "doubleSided" : true,
            "name" : "casierMat",
            "pbrMetallicRoughness" : {
                "baseColorFactor" : [
                    0.19598782062530518,
                    0.14298458397388458,
                    0.10463198274374008,
                    1
                ],
                "metallicFactor" : 0.19166666269302368,
                "roughnessFactor" : 0.8166666626930237
            }
        },
        {
            "doubleSided" : true,
            "name" : "doorCasier_mat",
            "pbrMetallicRoughness" : {
                "baseColorFactor" : [
                    0.09462565183639526,
                    0.06849013268947601,
                    0.04607175290584564,
                    1
                ],
                "metallicFactor" : 0,
                "roughnessFactor" : 0.5
            }
        },
        {
            "doubleSided" : true,
            "name" : "poignee_mat",
            "pbrMetallicRoughness" : {
                "baseColorFactor" : [
                    0.05221756920218468,
                    0.1977357417345047,
                    0.8000000715255737,
                    1
                ],
                "metallicFactor" : 0,
                "roughnessFactor" : 0.5
            }
        }
    ],
    "meshes" : [
        {
            "name" : "Cube",
            "primitives" : [
                {
                    "attributes" : {
                        "POSITION" : 0,
                        "NORMAL" : 1,
                        "TEXCOORD_0" : 2
                    },
                    "indices" : 3,
                    "material" : 0
                }
            ]
        },
        {
            "name" : "Cylinder",
            "primitives" : [
                {
                    "attributes" : {
                        "POSITION" : 4,
                        "NORMAL" : 5,
                        "TEXCOORD_0" : 6
                    },
                    "indices" : 7,
                    "material" : 1
                },
                {
                    "attributes" : {
                        "POSITION" : 8,
                        "NORMAL" : 9,
                        "TEXCOORD_0" : 10
                    },
                    "indices" : 11,
                    "material" : 2
                }
            ]
        },
        {
            "name" : "Cylinder.001",
            "primitives" : [
                {
                    "attributes" : {
                        "POSITION" : 12,
                        "NORMAL" : 13,
                        "TEXCOORD_0" : 14
                    },
                    "indices" : 15,
                    "material" : 1
                },
                {
                    "attributes" : {
                        "POSITION" : 16,
                        "NORMAL" : 17,
                        "TEXCOORD_0" : 18
                    },
                    "indices" : 19,
                    "material" : 2
                }
            ]
        }
    ],
    "accessors" : [
        {
            "bufferView" : 0,
            "componentType" : 5126,
            "count" : 52,
            "max" : [
                0.30000001192092896,
                1,
                0.4000000059604645
            ],
            "min" : [
                -0.30000001192092896,
                -1,
                -0.4000000059604645
            ],
            "type" : "VEC3"
        },
        {
            "bufferView" : 1,
            "componentType" : 5126,
            "count" : 52,
            "type" : "VEC3"
        },
        {
            "bufferView" : 2,
            "componentType" : 5126,
            "count" : 52,
            "type" : "VEC2"
        },
        {
            "bufferView" : 3,
            "componentType" : 5123,
            "count" : 84,
            "type" : "SCALAR"
        },
        {
            "bufferView" : 4,
            "componentType" : 5126,
            "count" : 24,
            "max" : [
                -1.9548460841178894e-06,
                1.8753831386566162,
                0.0056629180908203125
            ],
            "min" : [
                -0.010001955553889275,
                -0.10461694002151489,
                -0.38433706760406494
            ],
            "type" : "VEC3"
        },
        {
            "bufferView" : 5,
            "componentType" : 5126,
            "count" : 24,
            "type" : "VEC3"
        },
        {
            "bufferView" : 6,
            "componentType" : 5126,
            "count" : 24,
            "type" : "VEC2"
        },
        {
            "bufferView" : 7,
            "componentType" : 5123,
            "count" : 36,
            "type" : "SCALAR"
        },
        {
            "bufferView" : 8,
            "componentType" : 5126,
            "count" : 192,
            "max" : [
                0.019998028874397278,
                0.8775521516799927,
                -0.3129577040672302
            ],
            "min" : [
                -1.9818544387817383e-06,
                0.857552170753479,
                -0.3329576849937439
            ],
            "type" : "VEC3"
        },
        {
            "bufferView" : 9,
            "componentType" : 5126,
            "count" : 192,
            "type" : "VEC3"
        },
        {
            "bufferView" : 10,
            "componentType" : 5126,
            "count" : 192,
            "type" : "VEC2"
        },
        {
            "bufferView" : 11,
            "componentType" : 5123,
            "count" : 372,
            "type" : "SCALAR"
        },
        {
            "bufferView" : 12,
            "componentType" : 5126,
            "count" : 24,
            "max" : [
                -1.8849968910217285e-06,
                1.8753831386566162,
                0.3799999952316284
            ],
            "min" : [
                -0.010001897811889648,
                -0.10461705923080444,
                -0.010000646114349365
            ],
            "type" : "VEC3"
        },
        {
            "bufferView" : 13,
            "componentType" : 5126,
            "count" : 24,
            "type" : "VEC3"
        },
        {
            "bufferView" : 14,
            "componentType" : 5126,
            "count" : 24,
            "type" : "VEC2"
        },
        {
            "bufferView" : 15,
            "componentType" : 5123,
            "count" : 36,
            "type" : "SCALAR"
        },
        {
            "bufferView" : 16,
            "componentType" : 5126,
            "count" : 192,
            "max" : [
                0.019998088479042053,
                0.879891574382782,
                0.3286202847957611
            ],
            "min" : [
                -1.9222497940063477e-06,
                0.8598915338516235,
                0.30862027406692505
            ],
            "type" : "VEC3"
        },
        {
            "bufferView" : 17,
            "componentType" : 5126,
            "count" : 192,
            "type" : "VEC3"
        },
        {
            "bufferView" : 18,
            "componentType" : 5126,
            "count" : 192,
            "type" : "VEC2"
        },
        {
            "bufferView" : 19,
            "componentType" : 5123,
            "count" : 372,
            "type" : "SCALAR"
        }
    ],
    "bufferViews" : [
        {
            "buffer" : 0,
            "byteLength" : 624,
            "byteOffset" : 0
        },
        {
            "buffer" : 0,
            "byteLength" : 624,
            "byteOffset" : 624
        },
        {
            "buffer" : 0,
            "byteLength" : 416,
            "byteOffset" : 1248
        },
        {
            "buffer" : 0,
            "byteLength" : 168,
            "byteOffset" : 1664
        },
        {
            "buffer" : 0,
            "byteLength" : 288,
            "byteOffset" : 1832
        },
        {
            "buffer" : 0,
            "byteLength" : 288,
            "byteOffset" : 2120
        },
        {
            "buffer" : 0,
            "byteLength" : 192,
            "byteOffset" : 2408
        },
        {
            "buffer" : 0,
            "byteLength" : 72,
            "byteOffset" : 2600
        },
        {
            "buffer" : 0,
            "byteLength" : 2304,
            "byteOffset" : 2672
        },
        {
            "buffer" : 0,
            "byteLength" : 2304,
            "byteOffset" : 4976
        },
        {
            "buffer" : 0,
            "byteLength" : 1536,
            "byteOffset" : 7280
        },
        {
            "buffer" : 0,
            "byteLength" : 744,
            "byteOffset" : 8816
        },
        {
            "buffer" : 0,
            "byteLength" : 288,
            "byteOffset" : 9560
        },
        {
            "buffer" : 0,
            "byteLength" : 288,
            "byteOffset" : 9848
        },
        {
            "buffer" : 0,
            "byteLength" : 192,
            "byteOffset" : 10136
        },
        {
            "buffer" : 0,
            "byteLength" : 72,
            "byteOffset" : 10328
        },
        {
            "buffer" : 0,
            "byteLength" : 2304,
            "byteOffset" : 10400
        },
        {
            "buffer" : 0,
            "byteLength" : 2304,
            "byteOffset" : 12704
        },
        {
            "buffer" : 0,
            "byteLength" : 1536,
            "byteOffset" : 15008
        },
        {
            "buffer" : 0,
            "byteLength" : 744,
            "byteOffset" : 16544
        }
    ],
    "buffers" : [
        {
            "byteLength" : 17288,
            "uri" : "casier.bin"
        }
    ]
}
