{
    "asset" : {
        "generator" : "Khronos glTF Blender I/O v1.0.5",
        "version" : "2.0"
    },
    "scene" : 0,
    "scenes" : [
        {
            "extras" : {
                "glTF2ExportSettings" : {
                    "export_apply" : 1,
                    "export_extras" : 1,
                    "export_format" : "GLTF_SEPARATE",
                    "export_selected" : 1
                }
            },
            "name" : "Scene",
            "nodes" : [
                0,
                1,
                2,
                3
            ]
        }
    ],
    "nodes" : [
        {
            "name" : "Light",
            "rotation" : [
                0.16907575726509094,
                0.7558803558349609,
                -0.27217137813568115,
                0.570947527885437
            ],
            "translation" : [
                4.076245307922363,
                5.903861999511719,
                -1.0054539442062378
            ]
        },
        {
            "name" : "Camera",
            "rotation" : [
                0.483536034822464,
                0.33687159419059753,
                -0.20870360732078552,
                0.7804827094078064
            ],
            "translation" : [
                7.358891487121582,
                4.958309173583984,
                6.925790786743164
            ]
        },
        {
            "mesh" : 0,
            "name" : "lit",
            "translation" : [
                -1.024999976158142,
                -0.17500001192092896,
                0.675000011920929
            ]
        },
        {
            "mesh" : 1,
            "name" : "matelas",
            "translation" : [
                -1.024999976158142,
                -0.19500000774860382,
                0.6750001311302185
            ]
        }
    ],
    "materials" : [
        {
            "doubleSided" : true,
            "name" : "lit_mat",
            "pbrMetallicRoughness" : {
                "baseColorFactor" : [
                    0.23200872540473938,
                    0.23955194652080536,
                    0.21192525327205658,
                    1
                ],
                "metallicFactor" : 0,
                "roughnessFactor" : 0.4000000059604645
            }
        },
        {
            "doubleSided" : true,
            "name" : "matelas_mat",
            "pbrMetallicRoughness" : {
                "baseColorFactor" : [
                    0.6266632080078125,
                    0.6266632080078125,
                    0.6266632080078125,
                    1
                ],
                "metallicFactor" : 0,
                "roughnessFactor" : 0.5
            }
        }
    ],
    "meshes" : [
        {
            "name" : "Cube.003",
            "primitives" : [
                {
                    "attributes" : {
                        "POSITION" : 0,
                        "NORMAL" : 1,
                        "TEXCOORD_0" : 2
                    },
                    "indices" : 3,
                    "material" : 0
                }
            ]
        },
        {
            "name" : "Cube.000",
            "primitives" : [
                {
                    "attributes" : {
                        "POSITION" : 4,
                        "NORMAL" : 5,
                        "TEXCOORD_0" : 6
                    },
                    "indices" : 7,
                    "material" : 1
                }
            ]
        }
    ],
    "accessors" : [
        {
            "bufferView" : 0,
            "componentType" : 5126,
            "count" : 178,
            "max" : [
                2.0250000953674316,
                0.6000000238418579,
                0.02500000037252903
            ],
            "min" : [
                -0.02500000037252903,
                -0.15000000596046448,
                -1.375
            ],
            "type" : "VEC3"
        },
        {
            "bufferView" : 1,
            "componentType" : 5126,
            "count" : 178,
            "type" : "VEC3"
        },
        {
            "bufferView" : 2,
            "componentType" : 5126,
            "count" : 178,
            "type" : "VEC2"
        },
        {
            "bufferView" : 3,
            "componentType" : 5123,
            "count" : 300,
            "type" : "SCALAR"
        },
        {
            "bufferView" : 4,
            "componentType" : 5126,
            "count" : 20,
            "max" : [
                2.0149998664855957,
                0.27000001072883606,
                0.01500004529953003
            ],
            "min" : [
                0.034999966621398926,
                0.20000001788139343,
                -1.3650002479553223
            ],
            "type" : "VEC3"
        },
        {
            "bufferView" : 5,
            "componentType" : 5126,
            "count" : 20,
            "type" : "VEC3"
        },
        {
            "bufferView" : 6,
            "componentType" : 5126,
            "count" : 20,
            "type" : "VEC2"
        },
        {
            "bufferView" : 7,
            "componentType" : 5123,
            "count" : 30,
            "type" : "SCALAR"
        }
    ],
    "bufferViews" : [
        {
            "buffer" : 0,
            "byteLength" : 2136,
            "byteOffset" : 0
        },
        {
            "buffer" : 0,
            "byteLength" : 2136,
            "byteOffset" : 2136
        },
        {
            "buffer" : 0,
            "byteLength" : 1424,
            "byteOffset" : 4272
        },
        {
            "buffer" : 0,
            "byteLength" : 600,
            "byteOffset" : 5696
        },
        {
            "buffer" : 0,
            "byteLength" : 240,
            "byteOffset" : 6296
        },
        {
            "buffer" : 0,
            "byteLength" : 240,
            "byteOffset" : 6536
        },
        {
            "buffer" : 0,
            "byteLength" : 160,
            "byteOffset" : 6776
        },
        {
            "buffer" : 0,
            "byteLength" : 60,
            "byteOffset" : 6936
        }
    ],
    "buffers" : [
        {
            "byteLength" : 6996,
            "uri" : "lit.bin"
        }
    ]
}
