{
    "asset" : {
        "generator" : "Khronos glTF Blender I/O v1.0.5",
        "version" : "2.0"
    },
    "scene" : 0,
    "scenes" : [
        {
            "name" : "Scene",
            "nodes" : [
                0
            ]
        }
    ],
    "nodes" : [
        {
            "mesh" : 0,
            "name" : "tree",
            "rotation" : [
                0.7071068286895752,
                0,
                0,
                0.7071067094802856
            ]
        }
    ],
    "materials" : [
        {
            "doubleSided" : true,
            "name" : "bark03",
            "pbrMetallicRoughness" : {
                "baseColorTexture" : {
                    "index" : 0,
                    "texCoord" : 0
                },
                "metallicFactor" : 0,
                "roughnessFactor" : 1
            }
        },
        {
            "doubleSided" : true,
            "name" : "leaf maple",
            "pbrMetallicRoughness" : {
                "baseColorTexture" : {
                    "index" : 1,
                    "texCoord" : 0
                },
                "metallicFactor" : 0,
                "roughnessFactor" : 1
            }
        }
    ],
    "meshes" : [
        {
            "name" : "tree",
            "primitives" : [
                {
                    "attributes" : {
                        "POSITION" : 0,
                        "NORMAL" : 1,
                        "TEXCOORD_0" : 2
                    },
                    "indices" : 3,
                    "material" : 0
                },
                {
                    "attributes" : {
                        "POSITION" : 4,
                        "NORMAL" : 5,
                        "TEXCOORD_0" : 6
                    },
                    "indices" : 7,
                    "material" : 1
                }
            ]
        }
    ],
    "textures" : [
        {
            "source" : 0
        },
        {
            "source" : 1
        }
    ],
    "images" : [
        {
            "mimeType" : "image/png",
            "name" : "bark03",
            "uri" : "bark03.png"
        },
        {
            "mimeType" : "image/png",
            "name" : "leaf maple",
            "uri" : "leaf maple.png"
        }
    ],
    "accessors" : [
        {
            "bufferView" : 0,
            "componentType" : 5126,
            "count" : 943,
            "max" : [
                2.499892234802246,
                2.828097343444824,
                0
            ],
            "min" : [
                -2.7070071697235107,
                -2.8276116847991943,
                -10.296369552612305
            ],
            "type" : "VEC3"
        },
        {
            "bufferView" : 1,
            "componentType" : 5126,
            "count" : 943,
            "type" : "VEC3"
        },
        {
            "bufferView" : 2,
            "componentType" : 5126,
            "count" : 943,
            "type" : "VEC2"
        },
        {
            "bufferView" : 3,
            "componentType" : 5123,
            "count" : 3978,
            "type" : "SCALAR"
        },
        {
            "bufferView" : 4,
            "componentType" : 5126,
            "count" : 204,
            "max" : [
                2.4392099380493164,
                2.44315767288208,
                -3.5188305377960205
            ],
            "min" : [
                -2.546339750289917,
                -2.5621259212493896,
                -10.53486156463623
            ],
            "type" : "VEC3"
        },
        {
            "bufferView" : 5,
            "componentType" : 5126,
            "count" : 204,
            "type" : "VEC3"
        },
        {
            "bufferView" : 6,
            "componentType" : 5126,
            "count" : 204,
            "type" : "VEC2"
        },
        {
            "bufferView" : 7,
            "componentType" : 5123,
            "count" : 408,
            "type" : "SCALAR"
        }
    ],
    "bufferViews" : [
        {
            "buffer" : 0,
            "byteLength" : 11316,
            "byteOffset" : 0
        },
        {
            "buffer" : 0,
            "byteLength" : 11316,
            "byteOffset" : 11316
        },
        {
            "buffer" : 0,
            "byteLength" : 7544,
            "byteOffset" : 22632
        },
        {
            "buffer" : 0,
            "byteLength" : 7956,
            "byteOffset" : 30176
        },
        {
            "buffer" : 0,
            "byteLength" : 2448,
            "byteOffset" : 38132
        },
        {
            "buffer" : 0,
            "byteLength" : 2448,
            "byteOffset" : 40580
        },
        {
            "buffer" : 0,
            "byteLength" : 1632,
            "byteOffset" : 43028
        },
        {
            "buffer" : 0,
            "byteLength" : 816,
            "byteOffset" : 44660
        }
    ],
    "buffers" : [
        {
            "byteLength" : 45476,
            "uri" : "tree01.bin"
        }
    ]
}
